<svg xmlns="http://www.w3.org/2000/svg" viewBox="0 0 99.99 95.82"><title>Fichier 13</title><g id="Calque_2" data-name="Calque 2"><g id="Calque_1-2" data-name="Calque 1"><path d="M100,4.1c-.33,1.91-.68,3.82-1,5.74Q97,23.4,95,37q-1.9,12.78-3.8,25.57-1.34,9-2.7,18a3,3,0,0,1-4.17,2.58c-14.49-4.93-29-9.89-43.59-14.9L82.66,17.71l-.14-.15c-.2.14-.4.26-.58.41Q55.48,40.59,29.05,63.22a1.76,1.76,0,0,1-2,.38Q14.82,59.36,2.54,55.2a3.18,3.18,0,0,1-.47-6.1L95.06.54l1-.54h1.56A4.28,4.28,0,0,1,100,2.34Z"/><path d="M36.46,73.38l16.88,5.77c-.18.28-.3.51-.46.71Q47.61,87,42.33,94.24a3.24,3.24,0,0,1-3,1.57,3.09,3.09,0,0,1-2.82-3.37c0-5.78,0-11.57,0-17.35Z"/></g></g></svg>