<svg xmlns="http://www.w3.org/2000/svg" viewBox="0 0 99.94 91.64"><title>Fichier 12</title><g id="Calque_2" data-name="Calque 2"><g id="Calque_1-2" data-name="Calque 1"><path d="M99.94,9V57.67a1,1,0,0,0-.15.23c-1.23,5.58-5.14,8.75-10.81,8.75H27.46A10.42,10.42,0,0,1,16.6,55.85q0-22.51,0-45A12.17,12.17,0,0,1,17.22,7c1.45-4.38,5.37-7,10.29-7H87.76c.72,0,1.43,0,2.15,0a10.32,10.32,0,0,1,9.47,7.07C99.6,7.73,99.75,8.39,99.94,9ZM51.75,43.31l.78-.9Q59.75,33.74,67,25.09c3.37-4,8.4-4.05,11.84,0L90.63,38.84c.25.3.52.58.91,1,0-.41,0-.57,0-.73V10.71C91.58,9,90.79,8.3,89,8.3H27.58c-1.9,0-2.64.76-2.64,2.68v38.7c.39-.36.63-.57.85-.79L36.08,38.6c3.37-3.36,7.68-3.37,11.05,0C48.67,40.13,50.18,41.7,51.75,43.31Z"/><path d="M86.48,72.9c-1.41,4.44-2.63,8.79-4.18,13a9.12,9.12,0,0,1-11,5.38q-18.53-4.92-37-9.9L7.5,74.26C1.63,72.7-1.24,67.61.5,61.78Q5.2,46.09,9.9,30.41a1.42,1.42,0,0,1,.44-.77v1c0,8.75-.07,17.51,0,26.26a15.74,15.74,0,0,0,16,16q16.26,0,32.52,0H86.48Z"/><path d="M37.4,12.51a8.32,8.32,0,1,1-8.3,8.32A8.32,8.32,0,0,1,37.4,12.51Z"/></g></g></svg>