<svg xmlns="http://www.w3.org/2000/svg" viewBox="0 0 99.98 99.99"><title>Fichier 10</title><g id="Calque_2" data-name="Calque 2"><g id="Calque_1-2" data-name="Calque 1"><path d="M0,63.67c.36-2.24,1.73-3.83,3.28-5.38Q23.86,37.78,44.36,17.21a3.5,3.5,0,0,1,2.58-1.16c4.78,0,9.56.08,14.34.13a2.24,2.24,0,0,1,.35.09c-.35,3.23.37,6.38.79,9.55a1.82,1.82,0,0,1-.28,1,7.9,7.9,0,0,0,.55,8.75,8.11,8.11,0,0,0,14.49-3.09,7.85,7.85,0,0,0-2.67-7.91,2.37,2.37,0,0,1-.69-1.28c-.28-1.7-.46-3.42-.66-5.13A8.46,8.46,0,0,1,73.23,17c2.13.3,4.16.56,6.18.86a3.13,3.13,0,0,1,2.81,3c.51,4.36,1.06,8.72,1.46,13.09a128.6,128.6,0,0,1,.7,17.55,6.48,6.48,0,0,1-2,4.65Q61.62,76.78,41,97.51c-2.14,2.14-4.59,3.11-7.51,2.06a7.89,7.89,0,0,1-2.83-1.83Q16.39,83.6,2.23,69.39A8.5,8.5,0,0,1,0,65ZM51.66,46.14c-2.65-1.69-5.23-2.63-8.22-2.22a8.64,8.64,0,0,0-7.13,7.79A16.25,16.25,0,0,0,38,58.66C38.7,60.42,39.45,62.19,40,64a2.85,2.85,0,0,1-1.08,3.38,3.11,3.11,0,0,1-3.5,0,10.1,10.1,0,0,1-3.93-3.85c-1-1.71-1.9-3.53-2.87-5.37l-5.23,3.1a22.23,22.23,0,0,0,4.79,8l-3.51,3.34,3.66,3.65c.85-.86,1.83-1.73,2.67-2.72s1.27-.91,2.24-.3a10.52,10.52,0,0,0,7.45,1.61c4-.61,7.7-4.71,7.48-8.73a22.31,22.31,0,0,0-1.27-5.46c-.69-2.15-1.66-4.22-2.41-6.36a2.48,2.48,0,0,1,.82-3.07,2.73,2.73,0,0,1,3.37.11,11.49,11.49,0,0,1,2.63,2.43c1.2,1.67,2.17,3.5,3.27,5.31-.13,0-.06,0,0,0l3.46-2c1.75-1,1.81-1.05.79-2.8s-2.11-3.24-3.28-5l3.13-2.87-3.76-3.81Z"/><path d="M84,0a32.3,32.3,0,0,1,4,1C95.19,3.77,98.9,9.24,99.77,16.66c.65,5.49-.25,10.9-1.6,16.23a52.19,52.19,0,0,1-5,12.67A3,3,0,0,1,90,47.23a2.84,2.84,0,0,1-2.37-2.62A3.72,3.72,0,0,1,88,42.76a51,51,0,0,0,5.4-16.3c.58-3.7,1-7.43.12-11.15A11.68,11.68,0,0,0,82.13,5.93a11.91,11.91,0,0,0-11.52,9.2c-.61,2.47-.19,4.92.19,7.35s.9,5.13,1.34,7.69a2.93,2.93,0,0,1-2.31,3.51,2.83,2.83,0,0,1-3.45-2.36c-.72-4.22-1.6-8.45-1.92-12.71A17.6,17.6,0,0,1,79.54.2a4.64,4.64,0,0,0,.73-.2Z"/></g></g></svg>