<svg xmlns="http://www.w3.org/2000/svg" viewBox="0 0 100 79.62"><title>Fichier 11</title><g id="Calque_2" data-name="Calque 2"><g id="Calque_1-2" data-name="Calque 1"><path d="M100,41c-1.28,1.55-2.55,3.1-3.83,4.64s-2.27,1.61-3.8.33L51,11.44l-1-.8L45.35,14.5,7.56,46c-1.43,1.2-2.47,1.11-3.67-.31Q2.34,43.87.82,42c-1.19-1.43-1.09-2.44.36-3.65L34.26,10.82c3.6-3,7.18-6,10.81-9a7.44,7.44,0,0,1,8.31-1,9.78,9.78,0,0,1,2.15,1.5Q62.28,7.95,69,13.59c.22.18.46.34.8.59,0-.45,0-.75,0-1.06V2.77c0-1.93.66-2.58,2.58-2.58q5.32,0,10.65,0c2,0,2.64.66,2.64,2.63q0,11.87,0,23.73a1.79,1.79,0,0,0,.73,1.56q6.1,5,12.16,10.11A14.13,14.13,0,0,1,100,39.81Z"/><path d="M50,16.1,66.52,29.7Q75.75,37.31,85,44.9a1.91,1.91,0,0,1,.77,1.66c0,9.5,0,19,0,28.5,0,2.92-1.61,4.55-4.52,4.55q-11.13,0-22.26,0c-.29,0-.57,0-1,0V55.87H42.07v23.7c-.45,0-.77,0-1.08,0q-11.08,0-22.17,0c-3,0-4.56-1.62-4.56-4.61q0-14.2,0-28.41a2,2,0,0,1,.82-1.73q17-14,34-28C49.34,16.62,49.65,16.39,50,16.1Z"/></g></g></svg>