<svg id="Calque_1" data-name="Calque 1" xmlns="http://www.w3.org/2000/svg" viewBox="0 0 731.82 383.58"><title>logo</title><path d="M306,587.79H-53.22c-7.59,0-6.63.27-6.66-6.68,0-9.58,0-9.58,9.75-9.58h715c8.06,0,7-.46,7,7.05,0,9.21,0,9.21-9.37,9.21Z" transform="translate(59.91 -204.21)"/><path d="M671.39,320.78c-1.51.1-3.1.29-4.7.29H402.4c-5.34,0-5.34,0-5.35-5.31,0-10.6,0-10.6,10.49-10.6H666.59c5.29,0,5.3,0,5.3,5.23,0,3,0,6-.08,9A6.79,6.79,0,0,1,671.39,320.78Z" transform="translate(59.91 -204.21)"/><path d="M78,305.17H210c5,0,5,0,5,4.88a61,61,0,0,1-.13,8.23c-.13,1-1.48,2.13-2.55,2.66-.91.45-2.2.13-3.33.13H-53.85c-1.12,0-2.25-.05-3.37,0-1.84,0-2.74-.71-2.69-2.67.09-3.5.08-7,0-10.5,0-1.86.62-2.82,2.6-2.7,1.12.07,2.24,0,3.37,0Z" transform="translate(59.91 -204.21)"/><path d="M266.64,211.53c1.77.08,3.12.18,4.47.19,4.51,0,4.52,0,2.71-4.09-.95-2.16.18-3.25,2.1-3.28,6.75-.13,13.49-.12,20.24,0,2,0,2.81,1.24,2.08,3.33-1.38,4-1.31,4.06,3,4.06q29.79,0,59.59,0c8.61,0,12.35,3.61,12.38,12.3q.09,37.66,0,75.33c0,8.28-4,12.33-12.18,12.34q-55.09.1-110.18,0c-8.07,0-11.88-4.06-11.89-12.12q0-37.84,0-75.7c0-8.19,2.63-11.12,10.9-12.13,2.5-.31,2.68-1.48,1.62-3.26-1.72-2.92-.73-4.21,2.42-4.24,3.63,0,7.25-.07,10.87,0,2.93.07,4.39,1.09,2.5,4.2C266.8,209.2,266.88,210.27,266.64,211.53ZM306,216.36H250.91c-5.76,0-7.26,1.52-7.28,7.38,0,6.12,0,12.24,0,18.37q0,28.86,0,57.73c0,5.27,1.63,6.93,6.89,7.18,1.24.05,2.5,0,3.74,0h85.11c7.37,0,14.74.08,22.11-.05,5.15-.09,7-2,7.06-7.13q.09-38.06,0-76.1c0-5.83-1.82-7.4-7.79-7.41Zm-19.56-4.64a15.39,15.39,0,0,0,3.33-.05,10.23,10.23,0,0,0,2.49-1.38c-.77-.43-1.52-1.19-2.31-1.24a54,54,0,0,0-7.42,0c-.79,0-1.54.81-2.31,1.25a9.85,9.85,0,0,0,2.52,1.36A19.82,19.82,0,0,0,286.46,211.72Zm-26.69.57,2.13-1.88c-.83-.47-1.65-1.27-2.49-1.31s-1.47.82-2.21,1.28Z" transform="translate(59.91 -204.21)"/><path d="M391.31,439c-.18-1.6-.3-2.94-.47-4.27-.8-6.34-6.34-11.47-12.08-11.19A12.12,12.12,0,0,0,367.2,436q-.1,13.31,0,26.61a12.08,12.08,0,0,0,11,12.12c5.22.58,11.12-3.73,12.15-9.53.79-4.46,4.1-5,7.26-6.24,2,5.53-.52,13.29-5.56,17.64-6.43,5.55-13.76,6.59-21.28,3.15s-11.24-9.59-11.2-17.95c.05-8.75-.05-17.49,0-26.24.09-9.21,7.56-17.53,16.44-18.53,10.31-1.15,19.36,4.74,21.79,14.19C399.14,436.23,398.15,437.52,391.31,439Z" transform="translate(59.91 -204.21)"/><path d="M7.88,459C11,472.1-2.55,484.59-15.63,481c-9.25-2.52-14.75-9.63-14.78-19.16,0-8.75-.07-17.49,0-26.24C-30.31,426.36-23,418.06-14,417c10.27-1.23,19.37,4.63,21.87,14.08,1.36,5.16-.13,7-6.54,7.76-.15-1.44-.27-2.89-.47-4.33-.85-6.12-6.34-11.13-12-10.93A12.12,12.12,0,0,0-22.8,435.85c-.07,9.12-.11,18.24,0,27.36.09,5.91,4.82,10.72,10.87,11.46,5.08.61,10.82-3.63,12.23-9C1.54,461,2.08,460.53,7.88,459Z" transform="translate(59.91 -204.21)"/><path d="M412.11,453.86c-2.87-6.73,3.84-16.39,9.19-18.5,7.39-2.92,16.26-.58,20,6.12a22.43,22.43,0,0,1,2.74,9.5c.4,7.1.13,14.23.13,21.35,0,6.66,0,6.71-7.44,8.62v-23c-5.87,2.6-10.9,4.36-15.43,7-3.62,2.11-2.92,6.23,1,7.74,1.68.64,3.85,1.22,5.42.7,4.32-1.44,4.67,1.67,5.3,4.21.85,3.49-2.15,3.44-4.19,3.74a15.71,15.71,0,0,1-14.08-4.46c-5.68-5.7-4.52-15,2.62-18.73,5-2.56,10.28-4.46,15.45-6.63,3.8-1.59,4.59-3.61,1.49-6.21a14.16,14.16,0,0,0-8.32-3,6.86,6.86,0,0,0-6.59,5.78C418.65,452.4,415.45,452.79,412.11,453.86Z" transform="translate(59.91 -204.21)"/><path d="M70.93,453.82c-2.73-8.27,4.47-18.65,13.27-19.58,10.45-1.11,18.6,6,18.74,16.56.09,7.37,0,14.74,0,22.11,0,6-.51,6.56-7.62,7.92V458.07c-5.49,2.33-10.15,4-14.49,6.32-1.43.75-3,3.22-2.76,4.65s2.36,2.94,4,3.84a7.74,7.74,0,0,0,4.35.55c3.7-.38,5.14.52,5.43,4.3a3.53,3.53,0,0,1-1.56,2.78c-4.37,2.38-12,.72-16.31-3.31-3.94-3.69-5.26-8.72-2.79-13.63a13.74,13.74,0,0,1,5.55-5.7c4.84-2.52,10-4.35,15.11-6.47,3.5-1.46,3.92-3.13,1.52-6.17a8.58,8.58,0,0,0-8.37-3.1,7.66,7.66,0,0,0-6.84,6.12C77.31,452.71,74,452.74,70.93,453.82Z" transform="translate(59.91 -204.21)"/><path d="M215.94,457.54c.46-4.18.32-8.54,1.49-12.52,2.29-7.83,10.13-12.11,18.26-10.7A16.53,16.53,0,0,1,249.23,450c.12,2.75-.81,4.43-3.36,5.52-6.42,2.73-12.71,5.77-19.16,8.4-3,1.22-3.05,2.82-1.63,5.15a8.35,8.35,0,0,0,8.1,4.4c3.75-.29,6.83-2,7.73-5.92.7-3,2.59-4.19,5.13-5.24s3.1,0,3.16,2.23c.23,8.27-7.2,16.47-15.4,16.93a16.22,16.22,0,0,1-17.34-14.93c-.24-3,0-6,0-9ZM241,449.3c-.89-5.3-5.16-8.16-10.16-7.18-5.62,1.11-8.05,6.37-6.35,14.44Z" transform="translate(59.91 -204.21)"/><path d="M28.93,417.56v17.32c4.85,0,9.38-.72,13.57.16,6.66,1.4,11.41,7.59,11.61,14.4.26,8.74.11,17.49.07,26.24,0,4.77-4.1,4.06-7.58,5.61,0-3.3,0-6,0-8.67,0-7,.08-14-.07-21-.13-6-3.87-9.83-9.13-9.63-5.1.19-8.42,4.06-8.44,9.92,0,7.12,0,14.24,0,21.37,0,5.89-.56,6.49-7.19,7.44-.13-1.56-.38-3.11-.39-4.65q0-25.31,0-50.61C21.36,419.17,21.93,418.54,28.93,417.56Z" transform="translate(59.91 -204.21)"/><path d="M508.67,442.37l-5.22-1c1.65-2.7,3.11-5,4.45-7.33a6.54,6.54,0,0,0,.91-2.65c.14-1.86,0-3.74.05-5.62,0-6.69,0-6.7,7.33-8.51v16.83h21c-1.06,7.44-1.56,7.88-8.16,7.89-3.37,0-6.76-.15-10.11.14a3.39,3.39,0,0,0-2.35,2.32c-.17,7.12-.21,14.24,0,21.36.13,4,3.49,7.15,7.47,7.66s8.15-1.67,9.2-5.47c.83-3,2.64-4.43,5.27-5.58s3.1-.16,3.18,2.15a16.69,16.69,0,0,1-15.61,17,16.19,16.19,0,0,1-17.17-15.6c-.24-6.48-.05-13-.07-19.48C508.84,445.06,508.73,443.71,508.67,442.37Z" transform="translate(59.91 -204.21)"/><path d="M631.62,480.83c0-9.65,0-19,0-28.29,0-5.75-1.94-8.66-6.12-10-5.82-1.81-11.35,2-11.47,8.1-.16,7.49,0,15,0,22.47,0,6.08-.19,6.29-7.06,7.75a30.82,30.82,0,0,1-.51-3.85c0-8.87-.07-17.73,0-26.59.06-9,7-16.2,15.6-16.29,9.57-.1,17,6.65,17.19,16,.18,7.61.05,15.23.05,22.84C639.21,479.15,638.86,479.53,631.62,480.83Z" transform="translate(59.91 -204.21)"/><path d="M485.34,480.73c0-4.76,0-9.45,0-14.13,0-5.11.1-10.23-.07-15.33-.18-5.7-4-9.44-9.12-9.24-4.83.18-8.4,4.17-8.44,9.55,0,7.24,0,14.48,0,21.72,0,5.91-.49,6.45-7.15,7.48a34.32,34.32,0,0,1-.42-3.88c0-8.74-.06-17.48,0-26.21,0-9.3,6.91-16.47,15.75-16.52,9.74-.06,16.92,6.81,17.06,16.49.11,7.48,0,15,0,22.46C493,479.14,492.29,479.85,485.34,480.73Z" transform="translate(59.91 -204.21)"/><path d="M272.28,462.45a52,52,0,0,0,1.56,6c1.44,3.77,5.71,5.77,9.89,4.85a7.32,7.32,0,0,0,6-7.89,6.62,6.62,0,0,0-5.11-6.19,55,55,0,0,0-5.87-1.19A11.3,11.3,0,0,1,269.14,448a13.07,13.07,0,0,1,8.4-13.25,12.29,12.29,0,0,1,13.8,4c4,5.44,3.43,7-3.49,8.75-.7-1.07-1.19-2.63-2.23-3.24-1.65-1-4-2.16-5.45-1.66s-3.33,3-3.23,4.53,2.14,3.41,3.79,4.18c2.31,1.09,5.17.95,7.56,1.91,7.54,3,11.1,10.88,8.44,18.08a15.85,15.85,0,0,1-18.82,9.76c-5.49-1.52-9-5.12-11.21-10.2C264.27,465.24,265.66,463.09,272.28,462.45Z" transform="translate(59.91 -204.21)"/><path d="M175.2,417.42v4.41c0,14.24-.07,28.47.06,42.7.06,6.69,6.33,10.92,12.19,8.06a10.11,10.11,0,0,0,4.68-5.39c1-3,3.06-3.95,5.49-5,2.08-.89,2.81,0,2.8,1.94-.06,6.29-2.39,11.61-7.8,14.91s-11.22,3.57-16.72.28-8.32-8.39-8.3-15c0-13.11,0-26.22,0-39.33C167.61,419.21,168.37,418.4,175.2,417.42Z" transform="translate(59.91 -204.21)"/><path d="M565,434.2c.1,1.83.23,3.14.24,4.46,0,8.48,0,17,0,25.44,0,5.4,2.71,8.47,7.82,9.31,4,.66,7.57-1.79,9.38-6.38.44-1.1.89-2.56,1.78-3a29.13,29.13,0,0,1,5.49-1.78c.11,1.9.57,3.86.27,5.7a16.25,16.25,0,0,1-32.25-1.58c-.32-8.85-.14-17.71-.08-26.57C557.67,435.06,561.77,435.73,565,434.2Z" transform="translate(59.91 -204.21)"/><path d="M119.17,480.9c-.12-1.5-.3-2.7-.3-3.89,0-8.86-.05-17.72,0-26.57,0-7.89,5.69-14.83,13-16.14a16.32,16.32,0,0,1,18.46,10.07c2.38,5.8,1.06,7.84-5.81,8.66-.3-1.54-.49-3.13-.93-4.65a8.71,8.71,0,0,0-17.08,2c-.15,7.61-.06,15.22-.06,22.83C126.44,479.22,126.17,479.53,119.17,480.9Z" transform="translate(59.91 -204.21)"/><path d="M561.24,417a6,6,0,0,1,6,5.76,5.85,5.85,0,0,1-5.9,5.89,6,6,0,0,1-5.86-5.94A5.91,5.91,0,0,1,561.24,417Z" transform="translate(59.91 -204.21)"/><path d="M350,259.91a32.35,32.35,0,0,1-33,32.58c-17.89-.32-32.4-14.44-32.39-33.34,0-17.63,15.07-32.27,33.15-32.22C335.65,227,350,241.7,350,259.91Zm-4.64-.19c0-15.53-12.33-28.12-27.55-28.15a28.17,28.17,0,1,0,0,56.34C333.06,287.87,345.35,275.28,345.35,259.72Z" transform="translate(59.91 -204.21)"/><path d="M354.55,229.67c-1.87,0-3.74,0-5.61,0-2.28.09-3.49-.72-3.42-3.22s1.14-3.38,3.46-3.35c3.86,0,7.72,0,11.58,0,2.33,0,2.95,1.24,3,3.32s-.72,3.31-3,3.24C358.54,229.62,356.54,229.67,354.55,229.67Z" transform="translate(59.91 -204.21)"/><path d="M276.34,264.44c-1-1.6-2.92-3.32-2.73-4.76s2.48-3.86,3.75-3.8c1.45.07,3.84,2.38,3.88,3.78.06,1.58-2,3.23-3.2,4.85Z" transform="translate(59.91 -204.21)"/><path d="M279.17,235.9c1.05,1.31,2.22,2.16,2.12,2.82s-1.22,1.71-2.09,2c-.41.14-1.79-1.08-1.78-1.67C277.43,238.19,278.3,237.34,279.17,235.9Z" transform="translate(59.91 -204.21)"/><path d="M289.92,238.9c-1.52.91-2.48,1.92-3.14,1.76a3.31,3.31,0,0,1-1.82-2.22c-.09-.38,1.29-1.61,2-1.57C287.73,236.91,288.49,237.87,289.92,238.9Z" transform="translate(59.91 -204.21)"/><path d="M282.41,299.78c-1.55,1-2.47,2-3.25,1.86s-1.62-1.36-1.7-2.18c0-.54,1.25-1.71,1.9-1.69C280.19,297.81,281,298.77,282.41,299.78Z" transform="translate(59.91 -204.21)"/><path d="M332.49,296.74c1,1.38,2,2.13,2.05,2.95,0,.65-1.17,2-1.61,1.93a3.19,3.19,0,0,1-2.24-1.77C330.53,299.18,331.57,298.22,332.49,296.74Z" transform="translate(59.91 -204.21)"/><path d="M263.91,296.76c1.1,1.34,2.28,2.17,2.2,2.87s-1.2,1.72-2.07,2c-.41.14-1.81-1.06-1.81-1.65C262.22,299.13,263.07,298.26,263.91,296.76Z" transform="translate(59.91 -204.21)"/><path d="M312.93,299.83c-1.58.93-2.51,1.91-3.29,1.81s-1.58-1.38-1.65-2.21c-.05-.53,1.26-1.67,1.9-1.64C310.72,297.84,311.49,298.81,312.93,299.83Z" transform="translate(59.91 -204.21)"/><path d="M256.69,241.69c-1.1-1.32-2.23-2.1-2.2-2.83s1.14-1.71,2-2c.46-.13,1.81,1,1.84,1.6C258.33,239.34,257.5,240.21,256.69,241.69Z" transform="translate(59.91 -204.21)"/><path d="M263.93,241.66c-.85-1.25-1.84-2.09-1.7-2.65.21-.86,1.21-1.52,1.87-2.26.71.69,2,1.35,2,2.08S265,240.37,263.93,241.66Z" transform="translate(59.91 -204.21)"/><path d="M347.9,241.72c-1-1.43-2.1-2.3-2-3s1.27-1.65,2.12-1.85c.45-.1,1.71,1.16,1.71,1.81C349.73,239.48,348.82,240.29,347.9,241.72Z" transform="translate(59.91 -204.21)"/><path d="M355.27,235.91c1.11,1.29,2.3,2.09,2.25,2.77s-1.17,1.71-2,2c-.41.14-1.8-1-1.82-1.59C353.66,238.26,354.48,237.39,355.27,235.91Z" transform="translate(59.91 -204.21)"/><path d="M271.57,302.7c-.93-1.53-2-2.46-1.82-3.18s1.35-1.56,2.21-1.73c.44-.08,1.62,1.25,1.59,1.89C273.51,300.49,272.57,301.26,271.57,302.7Z" transform="translate(59.91 -204.21)"/><path d="M348,296.76c.86,1.45,1.76,2.3,1.73,3.13,0,.64-1.36,1.86-1.8,1.73-.85-.24-2-1.21-2.05-2S347,298.11,348,296.76Z" transform="translate(59.91 -204.21)"/><path d="M355.2,302.63c-.78-1.34-1.7-2.23-1.53-2.8.25-.84,1.27-1.45,2-2.16.68.72,1.9,1.45,1.89,2.16S356.34,301.34,355.2,302.63Z" transform="translate(59.91 -204.21)"/><path d="M305.11,299.46c-1.42,1.1-2.25,2.23-2.94,2.15a3.25,3.25,0,0,1-2-2c-.14-.39,1.07-1.74,1.73-1.78C302.7,297.76,303.57,298.61,305.11,299.46Z" transform="translate(59.91 -204.21)"/><path d="M297.61,299.67c-1.5,1-2.35,2-3.13,1.93s-1.61-1.27-1.71-2.06c-.06-.55,1.14-1.74,1.77-1.73C295.35,297.82,296.16,298.73,297.61,299.67Z" transform="translate(59.91 -204.21)"/><path d="M287,302.69c-1-1.45-2.12-2.32-2-3s1.25-1.68,2.1-1.89c.45-.11,1.74,1.14,1.75,1.79C288.85,300.37,287.94,301.21,287,302.69Z" transform="translate(59.91 -204.21)"/><path d="M343.31,299.53c-1.45,1.05-2.26,2.09-3,2.07s-1.67-1.2-1.79-2c-.09-.54,1.06-1.79,1.68-1.81C341,297.79,341.82,298.66,343.31,299.53Z" transform="translate(59.91 -204.21)"/><path d="M256.66,296.77c.81,1.47,1.67,2.34,1.63,3.16,0,.63-1.39,1.81-1.82,1.68-.84-.28-1.94-1.25-2-2S255.57,298.1,256.66,296.77Z" transform="translate(59.91 -204.21)"/><path d="M328.12,299.43c-1.45,1.11-2.19,2.09-3.05,2.21-.6.09-2-1.13-1.93-1.53a3.34,3.34,0,0,1,1.72-2.35C325.55,297.57,326.56,298.57,328.12,299.43Z" transform="translate(59.91 -204.21)"/><path d="M317.36,296.92c.9,1.15,2,1.95,1.86,2.52-.17.85-1.17,1.53-1.81,2.28-.7-.73-1.74-1.37-2-2.22C315.32,299,316.43,298.11,317.36,296.92Z" transform="translate(59.91 -204.21)"/><path d="M249.06,296.73c.9,1.53,1.93,2.51,1.75,3.15s-1.4,1.49-2.29,1.72c-.34.09-1.53-1.27-1.47-1.88C247.13,298.89,248.05,298.14,249.06,296.73Z" transform="translate(59.91 -204.21)"/><path d="M251.88,238.83c-1.5.92-2.33,1.8-3.2,1.84-.55,0-1.77-1.43-1.63-1.78a3.48,3.48,0,0,1,2.07-1.93C249.69,236.83,250.53,237.86,251.88,238.83Z" transform="translate(59.91 -204.21)"/><path d="M271.57,236.07c.93,1.1,2,1.86,1.94,2.41-.15.84-1.13,1.53-1.76,2.29-.7-.7-1.75-1.3-2-2.14C269.61,238.12,270.69,237.25,271.57,236.07Z" transform="translate(59.91 -204.21)"/><path d="M365.86,299.71c-1.22.92-2.06,2-2.6,1.87-.85-.22-1.49-1.25-2.22-1.93.74-.65,1.42-1.66,2.26-1.84C363.86,297.7,364.67,298.78,365.86,299.71Z" transform="translate(59.91 -204.21)"/><path d="M363.25,241.65c-1-1.34-2-2.08-2.07-2.91-.05-.57,1.24-1.88,1.69-1.78a3.18,3.18,0,0,1,2.05,1.87C365.09,239.38,364.11,240.28,363.25,241.65Z" transform="translate(59.91 -204.21)"/><path d="M294.2,259.23c0-12.41,10.79-23.22,23.44-22.77,13.66.49,23,10.39,23,23.23s-9.32,23.05-23.28,23.31C304.33,283.25,294.17,272.43,294.2,259.23Zm4.79,0a18.32,18.32,0,0,0,18.07,19A18.82,18.82,0,0,0,336.17,260c.28-10.06-8.41-18.7-18.9-18.8A18.3,18.3,0,0,0,299,259.25Z" transform="translate(59.91 -204.21)"/></svg>